<svg id="Isolation_Mode" data-name="Isolation Mode" xmlns="http://www.w3.org/2000/svg" viewBox="0 0 28.742 28.73">
  <title>fb_icon</title>
  <path d="M828.88,42.51H807.872A3.872,3.872,0,0,0,804,46.383V67.366a3.875,3.875,0,0,0,3.873,3.874h10.354l.02-10.264h-2.665a.64.64,0,0,1-.637-.633l-.012-3.3a.632.632,0,0,1,.632-.637h2.662v-3.2c0-3.7,2.263-5.725,5.578-5.725h2.715a.627.627,0,0,1,.632.619v2.8a.627.627,0,0,1-.632.629h-1.664c-1.8,0-2.156.862-2.156,2.115V56.4h3.963a.629.629,0,0,1,.625.7L826.9,60.43a.628.628,0,0,1-.632.546h-3.545L822.7,71.24h6.181a3.873,3.873,0,0,0,3.861-3.874V46.383a3.869,3.869,0,0,0-3.861-3.873" transform="translate(-803.999 -42.51)" style="fill: #ffc527"/>
</svg>
