<svg id="Isolation_Mode" data-name="Isolation Mode" xmlns="http://www.w3.org/2000/svg" viewBox="0 0 77.029 77.028">
  <title>ig_icon</title>
  <g>
    <path d="M354.621,200.46H324.759a23.609,23.609,0,0,1-23.583-23.583V147.014a23.61,23.61,0,0,1,23.583-23.583h29.862a23.61,23.61,0,0,1,23.584,23.583v29.863A23.61,23.61,0,0,1,354.621,200.46ZM324.759,129.2a17.835,17.835,0,0,0-17.815,17.815v29.863a17.835,17.835,0,0,0,17.815,17.815h29.862a17.836,17.836,0,0,0,17.816-17.815V147.014A17.836,17.836,0,0,0,354.621,129.2Z" transform="translate(-301.176 -123.431)" style="fill: #ffc527"/>
    <path d="M339.69,181.43a19.485,19.485,0,1,1,19.485-19.484A19.506,19.506,0,0,1,339.69,181.43Zm0-33.063a13.579,13.579,0,1,0,13.578,13.579A13.594,13.594,0,0,0,339.69,148.367Z" transform="translate(-301.176 -123.431)" style="fill: #ffc527"/>
    <path d="M366.368,140.341a5.073,5.073,0,1,1-5.073-5.073A5.073,5.073,0,0,1,366.368,140.341Z" transform="translate(-301.176 -123.431)" style="fill: #ffc527"/>
  </g>
</svg>
